<svg width="13" height="14" viewBox="0 0 13 14" fill="none" xmlns="http://www.w3.org/2000/svg">
<path d="M0.565098 1.39383L3.1651 0.793835C3.4476 0.728835 3.7376 0.876335 3.8526 1.14133L5.0526 3.94133C5.1576 4.18634 5.0876 4.47383 4.8801 4.64134L3.3651 5.88134C4.2651 7.79884 5.8376 9.39383 7.7951 10.3113L9.0351 8.79634C9.2051 8.58883 9.4901 8.51883 9.7351 8.62383L12.5351 9.82383C12.8026 9.94133 12.9501 10.2313 12.8851 10.5138L12.2851 13.1138C12.2226 13.3838 11.9826 13.5788 11.7001 13.5788C5.2976 13.5788 0.100098 8.39134 0.100098 1.97883C0.100098 1.69883 0.292598 1.45633 0.565098 1.39383Z" fill="white" stroke="white" stroke-width="0.025"/>
</svg>
